<svg xmlns:xlink="http://www.w3.org/1999/xlink" xmlns="http://www.w3.org/2000/svg" fill="none" viewBox="0 0 641 638" width="2400"  height="2389" ><g fill="#ffd550"><path d="m448.949 192.945c-3.799-2.159-8.006-3.434-12.031-5.096-.559-.181-1.1-.436-1.645-.676-1.607-.708-3.386-1.034-5.009-1.703-2.341-.965-4.714-1.831-7.227-2.243-.087-.014-.174.023-.225.095-.065.092-.187.123-.29.077-.791-.357-1.63-.619-2.498-.691-.334-.028-.668-.071-.99-.163-1.398-.396-2.828-.678-4.273-.847-.111-.013-.22-.035-.327-.068-.618-.19-1.242-.376-1.861-.566-.093-.028-.19.035-.201.132-.012.104-.122.167-.218.125-.923-.403-1.886-.741-2.899-.773-.176-.006-.354-.016-.521-.072-.025-.008-.049-.016-.074-.025-1.029-.36-2.292-.481-3.379-.571-.816-.068-1.654-.02-2.467-.123-.082-.01-.161.033-.195.108-.04.088-.141.13-.232.099-.515-.172-1.052-.258-1.603-.265-.558-.007-1.128-.073-1.691-.063-.725.014-1.461.076-2.174-.055-.262-.047-.529-.067-.795-.068-1.294-.003-2.588-.088-3.883-.107-.825-.054-1.674-.185-2.494-.028-.214.04-.414.05-.622-.013-.434-.131-.939.083-1.392.083-.359 0-.754-.161-1.122-.189-.124-.009-.248-.009-.371-.023-.704-.085-1.408-.157-2.114-.256-.116-.016-.218.077-.211.193.009.145-.147.244-.279.185-1.543-.693-3.306-.253-4.945-.238-2.365.264-4.75.276-7.126.476-2.569.178-5.225.139-7.735.667-.111.023-.226.002-.322-.059-.089-.058-.192-.123-.289-.185-.123-.079-.289-.004-.31.141-.024.161-.226.233-.371.161-.652-.323-1.444.002-2.147.05-.289.043-.866.141-1.157.189-.052.008-.104.016-.156.024-.976.146-1.619 1.119-1.31 2.056-.514-2.524-2.421-1.226-3.825-1.069-.784.179-1.743.039-2.375.616-.065.058-.153.086-.237.065l-.198-.052c-.046-.012-.092.023-.092.071-.001.089-.261.149-.334.097-.425-.304-1.122.104-1.653.151-.024.002-.047.007-.07.014-.111.036-.23.059-.353.077-.899.131-2.087.413-2.994.439-.444.013-.89.064-1.333.1-.106.008-.189.095-.192.201-.004.139-.141.234-.275.199-1.405-.361-2.863.095-4.302.221-.255.022-.387.339-.222.535.037.044.052.087.061.144.315 2.06 1.447 3.875 1.807 5.918.022.124.143.208.267.183.224-.046.366.239.187.382l-.053.041c-.141.112-.066.338.113.344.143.005.23.159.162.285l-.023.042c-.064.116-.011.263.112.312l.047.019c.123.049.177.193.117.311l-.024.047c-.06.119.019.262.152.274.128.012.207.146.177.272-.135.566.059 1.193.407 1.702.356.521.602 1.169.743 1.784.195.86.797 1.676 1.192 2.489.138.283.211.59.29.895.215.831.588 1.618 1.041 2.35.209.338.373.709.455 1.097.072.341.206.659.369.966.956 1.807 1.248 3.932 2.48 5.579.051.067.071.154.053.236-.016.076-.001.154.042.219.377.566.744 1.141 1.167 1.68.054.069.082.155.078.243-.005.096.028.19.093.26.394.434.778.871 1.17 1.302 2.241 2.425 4.617 4.721 6.877 7.127.39.346.795.664 1.22.954.086.058.129.161.11.263-.017.092.017.186.088.246 1.138.965 2.142 2.077 3.126 3.201.401.374.857.667 1.368.869.089.036.127.143.076.224-.041.066-.025.152.035.201 1.171.946 1.815 2.59 3.285 3.104.13.046.176.215.078.311-.072.069-.07.183.001.251.708.669 1.385 1.376 2.143 1.983.231.185.444.392.619.629.155.209.322.436.428.578.046.049.092.097.138.145 1.136 1.171 2.222 2.429 3.467 3.483.238.201.482.397.723.594.222.181.423.387.599.613.919 1.183 1.897 2.501 3.247 3.122.124.057.179.208.112.327-.05.09-.032.202.041.274.597.583 1.178 1.227 1.989 1.454.154.043.26.194.226.35-.029.129.038.26.159.313.313.136.624.275.933.417.345.159.593.465.844.751.448.508 1.153.723 1.812.904.101.028.152.14.105.234-.042.085-.003.188.084.226.485.213.959.441 1.429.681.13.066.289.005.339-.132.084-.229.415-.203.463.036l.05.25c.019.094.079.174.164.217 2.932 1.501 5.885 2.969 8.888 4.329 1.913.866 3.679 2.125 5.678 2.765.749.24 1.523.421 2.266.624 2.104.711 4.262 1.246 6.417 1.765.874.21 1.726.498 2.579.781 2.163.718 4.417 1.126 6.564 1.895 2.279.661 4.585 1.233 6.826 1.997.114.039.228.01.273-.102.091-.23.666-.227.845-.056.55.528 1.548.593 2.306.782 6.7 1.185 13.349 2.743 20.066 3.756.067.019.133.039.2.059 1.547.476 3.156.841 4.768.989 1.365.174 2.715.422 4.081.542 2.544.509 5.129.709 7.688 1.077.575.119 1.151.247 1.719.385.081.02.159-.043.158-.126-.003-.129.188-.195.287-.113.527.442 1.289.433 1.954.441.049.001.098.007.147.018.484.112.963.23 1.438.355.092.024.187-.026.219-.115.038-.104.159-.15.258-.102.561.272 1.155.467 1.773.438.224-.011.45-.017.67.027.549.111 1.095.232 1.65.331.692.085 1.378.184 2.069.242.688.132 1.375.269 2.068.322 3.112.488 6.235.876 9.337 1.422.097.017.188-.053.197-.151.011-.131.165-.2.277-.13.645.404 1.386.555 2.137.584.171.006.34.036.5.097 2.593.995 5.218 1.957 7.923 2.59 1.063.314 2.071.809 3.109 1.201 1.438.542 2.964.85 4.414 1.359 3.923 1.377 7.904 2.571 11.848 3.878 1.763.584 3.626.92 5.345 1.621.908.37 1.818.763 2.792.859.141.013.282.035.418.074.619.177 1.235.361 1.847.556.101.033.208-.03.229-.134.026-.131.181-.188.292-.116.716.467 1.57.629 2.399.779.08.014.162.023.243.028.816.053 1.581.325 2.346.586.1.035.21-.01.259-.103.054-.105.183-.146.29-.095.668.315 1.38.516 2.11.648.201.037.407.035.612.04.184.005.364.029.542.067.815.173 1.611.485 2.445.477.523-.006 1.049-.043 1.573-.036.966.014 1.932-.053 2.896-.109.307-.017.607-.089.907-.152 1.308-.274 2.797.197 4.054-.079.407-.089.397-.6.037-.81-.067-.039-.107-.081-.154-.142-.182-.238-.389-.455-.616-.652-.253-.219-.511-.432-.747-.669-.533-.537-1.095-1.043-1.656-1.544-.408-.329-.835-.635-1.277-.916-.09-.058-.13-.169-.096-.27.043-.129-.036-.266-.163-.315-1.038-.397-1.427-1.665-2.223-2.473-.245-.249-.513-.479-.729-.754-1.26-1.609-2.55-3.214-3.994-4.665-.06-.06-.115-.125-.165-.194-.376-.527-.755-1.072-1.366-1.316-.131-.052-.197-.21-.122-.328.049-.077.04-.177-.021-.245-1.322-1.472-2.523-3.05-3.881-4.486-.954-1.157-1.877-2.334-2.92-3.409-.992-1.077-1.853-2.313-2.799-3.452-1.418-1.708-2.982-3.455-4.533-5.042-.769-.674-1.472-1.418-2.148-2.185-.161-.183-.324-.363-.49-.539-.918-.877-1.791-1.796-2.7-2.68-.276-.296-.554-.592-.839-.88-.71-.718-1.429-1.429-2.124-2.162-.53-.558-1.081-1.098-1.638-1.628-.357-.386-.778-.658-1.272-.814-.137-.043-.182-.227-.07-.318.078-.065.083-.182.011-.253-.444-.44-.891-.885-1.342-1.321-.013-.014-.027-.027-.04-.04-1.765-1.74-3.538-3.672-5.327-5.386-.695-.679-1.336-1.438-2.018-2.13-.2-.203-.408-.397-.609-.595-2.092-1.946-4.143-3.941-6.293-5.824-.627-.649-1.279-1.275-1.942-1.89-1.004-1.021-2.088-1.956-3.12-2.95-.273-.225-.553-.448-.839-.664-.224-.168-.43-.36-.608-.576-.845-1.018-1.778-2.074-3.019-2.56-.118-.046-.169-.189-.1-.296.052-.08.037-.186-.035-.249-1.227-1.087-2.407-2.219-3.583-3.359-.386-.354-.774-.714-1.155-1.077-1.469-1.473-3.3-2.488-5.022-3.622-.667-.54-1.396-.993-2.122-1.455-4.098-2.785-8.195-5.575-12.306-8.344-.47-.376-.978-.69-1.507-.967-1.851-.967-3.693-2.005-5.609-2.836-.656-.285-1.322-.557-1.954-.889-.752-.395-1.455-.882-2.216-1.26-1.721-.855-3.495-1.602-5.159-2.572z"/><path d="m302.997 184.432c-.958-.719-1.997-1.324-3.09-1.816-2.648-1.193-5.315-2.349-7.994-3.475-.935-.392-1.903-.697-2.889-.935-5.144-1.244-10.261-2.787-15.586-2.975-1.109-.02-2.224-.185-3.338-.29-1.869-.175-3.821-.23-5.689-.414-1.825-.129-3.676-.496-5.493-.091-4.998.921-10.025 1.662-15.017 2.58-3.547 1.05-7.219 1.659-10.711 2.894-.027.01-.055.018-.084.023-.938.166-2.185.126-2.792.84-.102.121-.494.066-.522-.089-.014-.082-.093-.108-.172-.082-6.081 1.98-11.987 4.47-18.011 6.622-2.647.839-4.9 2.524-7.14 4.112-.226.138-.453.278-.677.424-.56.365-1.117.738-1.696 1.073-1.632.946-3.16 2.067-4.754 3.078-.085.054-.135.13-.13.231.014.242-.292.413-.534.395-.7-.053-1.267.865-1.852 1.279-.162.108-.445.294-.665.441-.121.081-.186.222-.168.365.001.008.002.015.003.022.033.262-.22.475-.478.42-.117-.024-.222.012-.311.091-1.872 1.658-3.819 3.25-5.607 5.002-.402.393-.835.752-1.281 1.093-1.343 1.029-2.532 2.248-3.771 3.398-.088.082-.123.206-.09.322.015.051.031.107.047.164.067.234-.218.411-.418.271-.115-.081-.255-.041-.342.07-1.145 1.474-2.705 2.564-3.836 4.059-.842 1.199-2.972 1.795-1.67 3.808-.359-.75-1.4-.86-1.962-.246-1.852 2.018-4.051 3.729-5.548 6.044-.073.122-.151.24-.234.357-1.099 1.55-2.321 3.332-3.512 4.814-2.711 3.692-5.26 7.523-7.451 11.546-.406.746-.854 1.467-1.331 2.169-4.141 6.081-6.87 12.985-10.278 19.477-1.399 2.494-2.055 5.294-2.969 7.982-.866 2.833-1.956 5.641-2.109 8.629-.007.131-.022.262-.052.389-.484 2.09-1.399 4.357-.894 6.477.041.174-.165.325-.309.221-.115-.082-.275-.008-.286.132-.563 7.168-.912 14.415-.222 21.573.11 1.146.055 2.303.044 3.455-.028 2.842.89 5.629 1.502 8.391 1.119 4.401 2.076 8.843 3.206 13.243.766 3.707 1.117 7.486 1.811 11.207.123.952.265 1.911.404 2.863.042.34.06.694.128 1.035.105.524.302 1.064.326 1.599.008.182.032.338.066.517.183.96.229 1.944.387 2.914.018.108.106.19.215.202.246.028.305.362.083.472-.018.009-.036.018-.054.027-.111.055-.169.178-.142.298.122.538.232 1.076.333 1.623.116 1.07.167 2.175.418 3.227.22.924.35 1.882.381 2.832.027.818.203 1.653.611 2.322.225.37.319.844.146 1.241-.098.223-.104.458-.04.694.607 2.271.546 4.69 1.07 6.973.112.484.11.989.149 1.484.059.743.611 1.376.888 2.067.476 1.186 1.1 2.305 1.673 3.448.758 1.859 1.501 3.728 2.433 5.507 1.237 2.958 2.626 5.853 3.964 8.765 2.171 5.23 4.649 10.32 7.288 15.322.048.09.152.135.25.107l.058-.016c.183-.052.325.16.208.31-.089.115-.028.284.115.314l.071.015c.143.03.213.194.137.319-.045.072-.042.165.007.235.68.984 1.116 2.107 1.735 3.125 1.023 2.335 3.109 3.902 4.391 6.05.052.087.162.12.251.073.005-.002.009-.004.014-.007.182-.095.345.152.208.305-.055.061-.048.132-.005.203.44.729 1.07 1.733 1.586.506-.136.246-.213.488-.232.727-.065.836.869.569 1.536.061.342-.26.827-.433.807-.862-.014-.287-.1-.589-.174-.876-.076-.292-.164-.582-.293-.855-.227-.483-.446-.969-.674-1.451.041.079.085.157.132.233 1.008 1.628 1.249 3.346.79 5.206-.008.032-.015.065-.021.097.026-.207.015-.391-.033-.552-.103-.35-.551-.314-.808-.054-.267.269-.289.696-.053.993 1.63 2.048 3.243 4.112 4.923 6.116.189.213.561.627.749.84.335.468.665.938.981 1.421.066.102.195.143.307.098.187-.076.391.092.413.293.105.965 1.157 1.656 1.764 2.452.128.166.27.315.453.418.242.136.435.352.564.598.585 1.114 1.505 2.003 2.31 2.96 1.841 2.134 3.677 4.281 5.54 6.399.097.11.22.181.363.207.227.041.416.21.504.423.437 1.063 1.276 1.916 2.12 2.706.349.327.659.692.943 1.077 1.444 1.952 3.257 3.611 5.184 5.082 2.615 2.631 5.338 5.225 8.377 7.369 4.702 2.65 9.374 5.345 14.099 7.953.093.051.204.06.304.024l.092-.034c.192-.069.395.069.401.273.003.102.058.195.146.248 2.111 1.25 4.266 2.45 6.555 3.339.185.072.391.064.571-.019l.019-.009c.023-.011.045-.023.066-.037l.091-.061c.074-.05.167-.059.248-.025.057.023.103.065.132.119l.054.101c.026.049.059.093.098.133.06.062.135.138.211.216.253.258.556.46.889.599 6.984 2.893 13.8 6.264 21.087 8.355 2.45.941 4.908 1.874 7.442 2.546 2.053.868 4.195 1.497 6.261 2.32.099.039.211-.02.232-.125.026-.125.176-.18.281-.107 1.122.77 2.519.891 3.796 1.27 5.487 1.223 10.911 2.729 16.428 3.812 5.966.866 11.938 1.729 17.909 2.566.959.134 1.927.188 2.895.17 8.719-.165 17.472.047 26.128-1.145 2.471-.19 4.946-.4 7.407-.708 2.788-.141 5.468-1.021 8.193-1.562.425-.067.845-.154 1.26-.261.738-.19 1.507-.277 2.246-.463.101-.025.2-.054.299-.086.717-.231 1.439-.476 2.193-.507 1.547-.26 3.064-.656 4.599-.97.931-.191 1.859-.405 2.762-.701 2.476-.813 4.946-1.645 7.372-2.588 2.074-.528 3.995-1.488 6.046-2.079 1.482-.55 3.311-.888 4.614-1.782.664-.455 1.379-.835 2.115-1.162 1.331-.591 2.51-1.513 3.794-2.196 2.204-.924 4.242-2.205 6.29-3.421.537-.275 1.144-.477 1.625-.84.38-.287.74-.616 1.166-.829.875-.439 1.669-1.241 2.502-1.753.562-.345 1.059-.794 1.43-1.327.087-.124.236-.191.384-.162.03.006.061.012.092.018.216.044.408-.15.361-.366-.039-.174.083-.343.257-.381 1.358-.297 2.47-1.417 3.496-2.365.196-.181.448-.315.684-.44.878-.465 1.802-1.27 2.627-1.823.452-.303.875-.679 1.308-.969.07-.048.12-.12.136-.203l.07-.354c.04-.202.319-.226.392-.034.056.146.248.179.35.061 2.156-2.5 4.75-4.58 7.047-6.944 1.239-1.31 2.733-2.461 3.88-3.862.951-1.161 1.941-2.437 2.865-3.619 1.828-2.376 3.658-4.746 5.483-7.118 2.861-3.604 5.004-7.705 7.613-11.49 1.34-2.092 2.639-4.211 4.001-6.289.068-.105.107-.226.113-.35.01-.212.019-.424.027-.635.007-.179.19-.297.355-.229.131.054.281-.008.336-.139 1.245-2.968 2.8-5.793 4.126-8.724 1.077-1.977 1.329-4.252 1.817-6.418.052-.233-.037-.476-.232-.614-.085-.06-.17-.12-.246-.173-.079-.055-.11-.157-.076-.246.044-.114.176-.166.286-.113.051.025.105.051.16.077.221.106.48-.032.519-.274.197-1.238.409-2.471.648-3.696.031-.162.076-.32.131-.476.931-2.652 1.311-5.452 1.804-8.205.666-3.496 1.267-7.002 1.959-10.493.641-2.79-.314-5.592-.202-8.4-.178-2.292-.178-4.658-.92-6.858-.279-1.377-.527-2.776-.885-4.141-.485-1.856-.986-3.723-1.423-5.592-.219-.936-.477-1.864-.728-2.793-.968-3.557-2.098-7.074-3.274-10.564-.299-.886-.673-1.745-1.094-2.579-1.929-3.823-3.613-7.797-6.165-11.251-4.013-5.779-8.159-11.473-12.125-17.287-3.811-5.061-7.591-10.142-11.384-15.218-6.427-9.754-12.749-19.579-19.156-29.341-.767-1.06-1.845-1.841-2.808-2.716-3.013-2.562-5.897-5.277-8.988-7.741-9.61-8.708-19.54-17.075-29.249-25.661-9.398-7.959-18.811-15.907-28.228-23.846-1.6-1.382-3.285-2.68-4.756-4.204-4.225-4.331-8.411-8.706-12.636-13.038-.311-.333-.672-.605-1.053-.85-.743-.477-1.376-1.103-2.092-1.619-.369-.266-.761-.513-1.108-.807-1.859-1.574-3.771-3.096-5.72-4.56z"/></g></svg>