<svg xmlns:xlink="http://www.w3.org/1999/xlink" fill="none" height="697" width="1092" xmlns="http://www.w3.org/2000/svg" class="shape full" data-v-6e97743c=""><path d="M-351.333-1179.28c51.776-5.45 105.498 1.87 152.606 24.61 42.44 19.24 77.453 51.39 108.859 85.2 26.49 30.84 49.477 65.22 81.166 91.18 20.795 15.102 46.295 21.503 71.405 24.722 49.16 5.942 97.506 19.452 141.572 42.264 48.134 24.509 103.943 40.106 157.912 28.86 57.152-9.444 115.366-12.379 173.155-8.418 41.449 1.875 83.147 6.402 124.596 2.158 23.413-5.376 40.955-23.52 59.911-37.136 60.689-48.135 145.604-62.317 219.237-39.93 64.684 22.989 113.634 79.188 137.684 142.46 13.44 43.749 15.49 90.151 15.21 135.633-3.43 84.847-17.62 169.304-43.36 250.26-30.88 107.092-61.188 214.325-93.76 320.922-20.088 67.163-39.292 134.75-52.236 203.716-8.594 42.759-16.269 86.084-31.936 126.969-17.259 45.553-35.013 92.096-66.772 129.869-25.854 35.226-62.21 63.626-104.721 75.191-26.277 7.922-54.146 6.649-81.025 10.928-30.627 8.382-55.631 29.426-77.842 51.212-30.627 31.477-59.415 64.722-86.895 98.993-37.949 47.074-87.745 86.615-146.064 104.404-32.078 11.141-66.666 12.627-100.3 12.131-63.942-6.613-123.5-33.068-180.334-61.68-62.174-33.21-130.962-52.273-200.351-62.919-47.745-6.507-93.969-26.49-129.477-59.452-35.791-30.062-58.603-72.149-76.109-114.838-51.494-119.117-84.562-244.918-120.989-369.2-28.576-103.307-62.033-205.271-102.068-304.653-15.349-47.569-34.376-93.971-46.33-142.601-32.219-113.07-53.651-231.338-42.369-349.217 7.462-66.809 22.634-133.406 50.927-194.626 19.629-48.352 54.253-88.352 89.089-126.332 35.614-34.73 78.054-64.26 126.4-77.77 23.802-7.18 48.487-10.54 73.209-12.95z" fill="#1D3723" stroke="#154726"></path></svg>