<svg xmlns:xlink="http://www.w3.org/1999/xlink" xmlns="http://www.w3.org/2000/svg" viewBox="0 0 200 200" width="200" height="200" preserveAspectRatio="xMidYMid meet" style="width: 100%; height: 100%; transform: translate3d(0px, 0px, 0px); content-visibility: visible;"><defs><clipPath id="__lottie_element_306"><rect width="200" height="200" x="0" y="0"></rect></clipPath><clipPath id="__lottie_element_308"><path d="M0,0 L200,0 L200,200 L0,200z"></path></clipPath></defs><g clip-path="url(#__lottie_element_306)" stroke="#154726"><g clip-path="url(#__lottie_element_308)" transform="matrix(1,0,0,-1,0,200)" opacity="1" style="display: block;" stroke="#154726"><g transform="matrix(8,0,0,-8,140,95.5)" opacity="1" style="display: block;" stroke="#154726"><g opacity="1" transform="matrix(1,0,0,1,-5.513999938964844,-3.3480000495910645)" stroke="#154726"><path stroke-linecap="round" stroke-linejoin="round" fill-opacity="0" stroke="#144625" stroke-opacity="1" stroke-width="1.5px" d=" M6.855999946594238,3.2709999084472656 C2.3420000076293945,3.2690000534057617 -3.236999988555908,3.265000104904175 -3.236999988555908,3.265000104904175 C-5.0378499031066895,3.263923406600952 -6.5,1.8008496761322021 -6.5,1.1444091896350983e-8 C-6.5,0 -6.5,-1.1950000524520874 -6.5,-2.5190000534057617"></path></g><g opacity="1" transform="matrix(1,0,0,1,0,0)" stroke="#154726"><path stroke-linecap="round" stroke-linejoin="round" fill-opacity="0" stroke="#144625" stroke-opacity="1" stroke-width="1.5px" d=" M-2,4.5 C-2,4.5 2,0 2,0 C2,0 -2,-4.5 -2,-4.5"></path></g></g><g stroke="#154726" style="display: none;"><g stroke="#154726"><path stroke-linecap="round" stroke-linejoin="round" fill-opacity="0" stroke="#154726"></path></g><g stroke="#154726"><path stroke-linecap="round" stroke-linejoin="round" fill-opacity="0" stroke="#154726"></path></g></g></g></g></svg>